<?xml version="1.0" standalone="no"?>
<!DOCTYPE svg PUBLIC "-//W3C//DTD SVG 20010904//EN"
 "http://www.w3.org/TR/2001/REC-SVG-20010904/DTD/svg10.dtd">
<svg version="1.0" xmlns="http://www.w3.org/2000/svg"
 width="225.000000pt" height="225.000000pt" viewBox="0 0 225.000000 225.000000"
 preserveAspectRatio="xMidYMid meet">

<g transform="translate(0.000000,225.000000) scale(0.100000,-0.100000)"
fill="#000000" stroke="none">
<path d="M16 2008 c-22 -31 -22 -151 0 -172 13 -14 47 -16 214 -16 181 0 199
-2 204 -17 2 -10 14 -61 26 -113 22 -93 63 -267 119 -505 41 -168 87 -367 106
-451 l16 -70 -31 -58 c-89 -171 31 -386 217 -386 76 0 197 88 224 164 l13 36
268 0 267 0 19 -42 c56 -126 177 -184 303 -147 51 16 103 60 137 117 23 41 27
58 27 127 0 63 -5 89 -22 121 -47 89 -128 131 -236 121 -59 -5 -143 -45 -154
-73 -4 -12 -59 -14 -332 -14 l-328 0 -41 40 c-25 23 -60 44 -84 51 -24 6 -49
13 -55 15 -7 2 -13 15 -13 29 l0 25 525 0 c499 0 526 1 544 19 10 10 79 201
160 443 125 376 140 429 130 451 -6 14 -19 30 -28 34 -9 4 -367 10 -796 13
l-779 5 -8 30 c-4 17 -15 65 -24 108 -11 51 -25 88 -41 108 l-25 29 -253 0
c-251 0 -254 0 -269 -22z m923 -1459 c48 -45 50 -107 5 -150 -74 -70 -199 23
-153 114 29 57 105 76 148 36z m1015 10 c32 -15 60 -72 51 -106 -18 -74 -111
-99 -166 -44 -77 77 15 195 115 150z"/>
</g>
</svg>
